<svg width="49" height="50" viewBox="0 0 49 50" fill="none" xmlns="http://www.w3.org/2000/svg">
<path d="M25.2463 23.8018L14.9173 35.1777L11.5261 31.357" stroke="#04D361" stroke-width="2" stroke-linecap="round" stroke-linejoin="round"/>
<path d="M15.7701 26.7773H10.8529C8.4943 26.7773 6.58228 28.5984 6.58228 30.8449V36.7109C6.58228 38.9574 8.4943 40.7785 10.8529 40.7785H17.0119C19.3705 40.7785 21.2825 38.9574 21.2825 36.7109V35.5283" stroke="white" stroke-width="2" stroke-linecap="round" stroke-linejoin="round"/>
<path fill-rule="evenodd" clip-rule="evenodd" d="M37.8889 21.9701H30.6583C28.6616 21.9701 27.043 20.4513 27.043 18.5778V11.7932C27.043 9.91967 28.6616 8.40088 30.6583 8.40088H37.8889C39.8856 8.40088 41.5042 9.91967 41.5042 11.7932V18.5778C41.5042 20.4513 39.8856 21.9701 37.8889 21.9701Z" stroke="white" stroke-width="2" stroke-linecap="round" stroke-linejoin="round"/>
<path fill-rule="evenodd" clip-rule="evenodd" d="M37.8889 40.3466H30.6583C28.6616 40.3466 27.043 38.8278 27.043 36.9543V30.1697C27.043 28.2961 28.6616 26.7773 30.6583 26.7773H37.8889C39.8856 26.7773 41.5042 28.2961 41.5042 30.1697V36.9543C41.5042 38.8278 39.8856 40.3466 37.8889 40.3466Z" stroke="white" stroke-width="2" stroke-linecap="round" stroke-linejoin="round"/>
<path fill-rule="evenodd" clip-rule="evenodd" d="M17.6074 22.402H10.2573C8.22765 22.402 6.58228 20.8349 6.58228 18.9017V11.9012C6.58228 9.96801 8.22765 8.40088 10.2573 8.40088H17.6074C19.6371 8.40088 21.2825 9.96801 21.2825 11.9012V18.9017C21.2825 20.8349 19.6371 22.402 17.6074 22.402Z" stroke="white" stroke-width="2" stroke-linecap="round" stroke-linejoin="round"/>
</svg>
